<?xml version="1.0" standalone="no"?>
<!DOCTYPE svg PUBLIC "-//W3C//DTD SVG 20010904//EN"
 "http://www.w3.org/TR/2001/REC-SVG-20010904/DTD/svg10.dtd">
<svg version="1.0" xmlns="http://www.w3.org/2000/svg"
 width="495.000000pt" height="495.000000pt" viewBox="0 0 495.000000 495.000000"
 preserveAspectRatio="xMidYMid meet">
<metadata>
Created by potrace 1.14, written by Peter Selinger 2001-2017
</metadata>
<g transform="translate(0.000000,495.000000) scale(0.100000,-0.100000)"
fill="#000000" stroke="none">
<path d="M2395 3737 c-88 -42 -138 -120 -138 -217 0 -207 241 -316 397 -179
76 67 101 156 71 251 -31 100 -107 158 -213 165 -56 3 -75 0 -117 -20z"/>
<path d="M1600 3462 c-52 -9 -147 -61 -188 -103 -67 -68 -87 -119 -87 -219 0
-47 4 -107 9 -135 27 -165 28 -281 1 -410 -66 -315 -262 -648 -625 -1059 -55
-62 -294 -302 -371 -373 -31 -29 -55 -54 -53 -56 2 -2 29 0 59 5 303 47 763
404 1237 958 282 330 460 648 493 880 16 113 5 198 -36 287 -66 140 -193 221
-354 228 -33 1 -71 0 -85 -3z"/>
<path d="M3308 3285 c-2 -2 -37 -5 -78 -8 -160 -12 -327 -59 -488 -139 -220
-108 -370 -247 -626 -583 -55 -71 -103 -132 -106 -135 -3 -3 -21 -25 -40 -50
-29 -38 -183 -221 -215 -256 -5 -6 -41 -47 -80 -90 -38 -43 -182 -192 -320
-329 -302 -303 -495 -462 -685 -569 l-65 -36 95 5 c170 10 261 20 345 35 28 6
68 12 90 16 22 3 48 7 57 10 9 3 25 6 35 9 96 19 296 120 431 219 180 131 348
272 492 416 85 86 108 110 230 250 308 352 512 550 685 667 49 33 175 103 195
108 3 1 17 7 32 13 183 76 478 99 658 52 150 -39 327 -135 436 -236 17 -16 43
-40 59 -54 l28 -25 -13 25 c-111 220 -290 413 -491 528 -182 104 -352 150
-586 157 -40 1 -74 1 -75 0z"/>
<path d="M796 2930 c-52 -27 -83 -56 -109 -105 -18 -33 -22 -57 -22 -135 0
-93 1 -97 46 -185 74 -145 87 -212 61 -315 -43 -174 -298 -589 -586 -955 -39
-49 -73 -92 -76 -95 -3 -3 -14 -16 -25 -29 l-20 -24 45 23 c184 92 448 335
660 605 30 39 59 75 63 80 75 92 260 377 294 453 55 124 83 340 58 447 -34
146 -144 243 -284 251 -52 3 -74 0 -105 -16z"/>
<path d="M3606 2750 c-256 -41 -499 -178 -722 -409 -78 -82 -80 -85 -199 -216
-188 -209 -366 -392 -490 -505 -188 -171 -373 -287 -695 -433 l-35 -16 63 4
c131 10 191 16 307 31 66 8 128 17 137 20 10 3 30 7 45 10 275 44 488 155 712
369 104 99 190 200 361 425 155 203 264 320 367 391 164 113 314 150 517 126
58 -7 82 -13 176 -45 121 -40 279 -139 383 -238 27 -25 51 -43 54 -41 7 8 -35
85 -89 164 -113 164 -293 289 -495 343 -89 25 -300 35 -397 20z"/>
<path d="M3875 2423 c-206 -21 -344 -86 -493 -233 -40 -39 -127 -139 -194
-223 -179 -225 -203 -253 -313 -363 -150 -151 -327 -274 -468 -324 l-52 -19
40 -2 c64 -2 196 1 240 6 22 2 63 7 90 10 28 3 86 10 130 15 167 20 246 25
430 25 288 0 448 -23 849 -120 60 -15 116 -28 125 -30 9 -2 52 -11 96 -20 118
-25 255 -23 329 5 103 39 162 111 180 218 3 17 3 32 0 32 -3 0 -25 -20 -49
-44 -124 -124 -342 -138 -545 -36 -205 104 -271 300 -143 427 23 24 49 43 58
43 25 0 17 27 -13 49 -34 24 -93 39 -140 35 -84 -6 -188 -86 -213 -162 -6 -18
-16 -31 -22 -29 -27 8 -48 138 -34 207 8 40 48 110 82 143 87 85 214 112 380
82 68 -12 172 -74 230 -137 79 -85 135 -213 135 -307 0 -49 15 -36 33 27 23
83 17 229 -14 302 -93 223 -371 407 -634 419 -33 1 -62 4 -65 5 -3 1 -18 0
-35 -1z"/>
</g>
</svg>
