<?xml version="1.0" standalone="no"?>
<!DOCTYPE svg PUBLIC "-//W3C//DTD SVG 20010904//EN"
 "http://www.w3.org/TR/2001/REC-SVG-20010904/DTD/svg10.dtd">
<svg version="1.0" xmlns="http://www.w3.org/2000/svg"
 width="1280.000000pt" height="1280.000000pt" viewBox="0 0 1280.000000 1280.000000"
 preserveAspectRatio="xMidYMid meet">
<metadata>
Created by potrace 1.14, written by Peter Selinger 2001-2017
</metadata>
<g transform="translate(0.000000,1280.000000) scale(0.100000,-0.100000)"
fill="#000000" stroke="none">
<path d="M1349 12158 c0 -7 -1 -452 -1 -988 l-1 -976 64 -89 c35 -50 72 -101
81 -115 10 -14 62 -88 117 -165 55 -77 171 -241 258 -364 87 -123 164 -229
171 -237 6 -7 12 -15 12 -18 0 -2 44 -67 98 -143 197 -276 349 -491 937 -1323
185 -261 344 -485 353 -497 9 -13 98 -138 197 -278 l180 -256 265 -85 c146
-47 353 -114 460 -149 107 -35 283 -91 390 -125 107 -34 204 -65 215 -70 11
-5 52 -18 90 -30 66 -20 353 -112 795 -255 107 -35 330 -107 495 -160 165 -53
341 -110 392 -126 l92 -30 -60 -77 c-33 -42 -69 -88 -80 -102 -11 -14 -62 -78
-112 -144 -51 -65 -106 -134 -122 -153 l-30 -34 -345 111 c-190 61 -471 152
-625 201 -154 50 -350 113 -435 141 -85 27 -193 62 -240 78 -47 15 -173 56
-280 90 -107 34 -289 93 -405 130 -115 38 -318 103 -450 145 -132 42 -261 84
-287 94 -49 17 -57 28 -385 494 -18 26 -48 68 -66 95 -44 61 -384 541 -403
567 -8 11 -63 90 -124 175 -60 85 -142 202 -183 260 -248 349 -545 769 -559
790 -10 14 -35 50 -57 80 -22 30 -62 87 -89 125 -216 308 -322 456 -323 449 0
-5 -1 -151 -1 -324 l0 -315 55 -120 c86 -190 90 -199 182 -405 48 -107 95
-213 105 -235 10 -22 27 -60 38 -85 11 -25 63 -142 117 -260 53 -118 102 -228
110 -245 7 -16 23 -52 35 -80 13 -27 31 -68 40 -90 10 -22 31 -69 47 -105 64
-139 83 -181 83 -185 0 -2 15 -36 34 -77 18 -40 102 -226 186 -413 83 -187
181 -405 217 -485 36 -80 75 -167 88 -195 12 -27 53 -120 91 -205 37 -85 69
-157 70 -158 3 -4 267 -102 394 -147 127 -44 325 -116 345 -125 11 -5 58 -22
105 -38 47 -17 200 -71 340 -122 283 -102 352 -127 720 -260 140 -51 289 -104
330 -119 41 -15 218 -79 392 -142 175 -63 318 -117 318 -120 0 -3 -111 -79
-247 -169 -137 -90 -453 -300 -703 -465 -1044 -691 -2175 -1440 -2795 -1850
-181 -119 -377 -250 -435 -289 l-105 -71 -750 -5 -749 -5 -1 -323 c0 -199 4
-326 10 -330 9 -6 12737 -10 12765 -4 13 3 15 47 14 330 l0 327 -630 3 -629 3
-67 87 c-73 96 -338 439 -380 493 -15 19 -93 120 -174 224 -81 105 -180 233
-221 285 -40 52 -82 106 -92 120 -11 14 -39 50 -63 80 -24 30 -73 93 -108 140
-36 46 -70 91 -77 100 -7 8 -58 74 -113 145 -55 72 -106 137 -113 145 -7 8
-41 53 -76 100 -35 47 -71 91 -80 98 -15 12 -14 15 4 28 11 9 142 104 290 212
149 108 275 200 280 205 6 4 64 47 130 95 185 134 171 118 178 192 4 36 9 74
11 85 2 11 7 47 10 80 4 33 9 78 12 100 2 22 7 57 9 78 3 20 7 54 10 75 13
102 28 222 39 322 4 30 9 71 12 90 5 38 10 77 19 155 6 50 32 259 40 325 2 19
9 76 15 125 6 50 13 104 15 120 6 48 14 116 20 170 3 28 8 61 10 75 3 14 7 48
10 75 6 58 15 127 21 170 7 51 13 108 19 165 3 30 7 64 10 75 2 11 13 97 24
190 26 216 31 255 36 280 2 11 4 32 4 47 1 28 -1 28 146 43 28 3 67 8 88 11
21 3 55 7 75 9 67 6 196 21 262 31 14 2 56 6 93 9 37 4 77 8 88 10 11 2 47 7
80 10 33 4 69 8 79 10 17 3 44 -13 95 -57 17 -14 87 -72 190 -157 151 -123
314 -257 328 -269 16 -14 17 12 17 540 0 521 -1 556 -17 561 -10 3 -90 33
-178 67 -88 34 -230 88 -315 120 -85 33 -279 107 -430 165 l-275 105 -322 322
-322 322 -748 1 -748 0 -24 -25 c-13 -14 -35 -41 -50 -60 -25 -34 -360 -460
-384 -490 -134 -165 -475 -608 -493 -641 -13 -24 -68 -143 -122 -264 -121
-268 -142 -314 -198 -433 -24 -51 -44 -94 -44 -96 0 -2 -17 -39 -37 -82 -20
-43 -38 -81 -38 -84 -1 -3 -18 -41 -38 -85 -21 -44 -48 -102 -61 -130 l-23
-50 0 1171 0 1171 -44 40 c-24 22 -64 57 -89 79 -25 21 -50 44 -56 49 -6 6
-40 35 -74 65 -35 30 -73 64 -84 75 -12 11 -57 51 -101 90 -44 38 -93 82 -110
97 -16 15 -39 35 -51 45 -28 24 -154 135 -168 148 -6 6 -49 44 -96 84 -47 41
-87 77 -90 80 -3 4 -57 51 -120 106 -63 55 -117 102 -120 106 -3 3 -28 26 -55
50 -28 24 -80 70 -115 101 -36 31 -74 65 -86 75 -23 20 -161 143 -178 158 -6
6 -44 39 -85 75 -41 36 -82 72 -91 80 -52 46 -97 86 -204 180 -66 58 -138 122
-160 142 l-41 37 -5 -479 -5 -480 -40 37 c-23 21 -79 72 -125 113 -46 41 -93
84 -105 95 -11 11 -56 52 -99 90 -43 39 -92 84 -110 100 -18 17 -70 64 -116
105 -46 41 -93 84 -104 95 -12 11 -62 56 -111 100 -50 44 -94 85 -100 91 -5 6
-52 48 -104 95 -52 46 -107 95 -121 109 -15 14 -47 43 -72 65 -96 86 -451 408
-529 479 -30 28 -93 85 -138 126 -46 41 -94 85 -107 97 -13 13 -25 19 -27 15
-3 -4 -8 -39 -11 -78 -4 -39 -8 -80 -10 -90 -3 -16 -17 -138 -21 -184 -3 -37
-17 -157 -21 -181 -2 -14 -6 -52 -9 -85 -3 -32 -8 -70 -10 -84 -2 -14 -6 -54
-10 -90 -8 -77 -15 -123 -20 -128 -3 -4 -236 175 -841 646 -83 64 -166 128
-184 142 -18 14 -195 151 -394 305 -199 154 -399 309 -446 345 -47 36 -87 67
-90 70 -3 3 -23 19 -45 36 -22 17 -70 54 -107 83 -40 31 -68 47 -69 39z m9439
-3903 c4 -6 47 -46 97 -90 49 -44 113 -102 141 -128 28 -26 60 -54 70 -62 17
-13 -24 -14 -320 -15 l-338 0 -32 26 c-17 15 -64 56 -105 93 -41 36 -79 71
-85 76 -67 60 -113 104 -111 107 9 9 677 2 683 -7z m-1368 -5430 c25 -36 65
-94 90 -129 25 -35 77 -109 115 -165 39 -56 104 -150 146 -209 41 -59 100
-143 131 -187 30 -44 106 -154 169 -245 63 -91 118 -170 122 -176 3 -6 -1 -20
-11 -30 -9 -10 -30 -35 -46 -54 -15 -19 -52 -62 -81 -95 -29 -33 -90 -102
-135 -152 l-82 -93 -117 0 -117 0 -175 221 c-96 121 -210 266 -255 322 -134
169 -524 660 -552 696 -15 19 -46 57 -69 85 -23 28 -40 52 -39 54 6 6 43 10
156 17 63 4 126 9 140 10 14 2 70 6 125 9 178 12 197 15 234 44 18 15 52 40
75 56 23 16 57 41 76 57 19 16 40 28 45 29 6 0 30 -30 55 -65z m-3836 -217
c-5 -7 -37 -54 -74 -105 -36 -51 -96 -138 -135 -193 -38 -56 -77 -109 -85
-120 -8 -10 -35 -49 -60 -85 -25 -36 -99 -142 -165 -235 -66 -93 -185 -262
-264 -375 l-144 -205 -316 0 -316 0 25 23 c14 12 129 110 255 217 127 107 232
197 235 200 4 5 169 145 225 191 11 10 58 50 105 89 47 40 110 94 140 119 30
25 72 62 95 82 22 19 81 69 130 110 50 40 92 76 95 79 3 3 52 46 110 95 58 50
114 98 124 108 23 20 30 22 20 5z m2114 -56 c21 -31 112 -167 203 -302 165
-243 358 -530 364 -541 2 -3 -6 -16 -18 -30 -12 -13 -49 -55 -82 -94 -33 -38
-66 -76 -73 -84 -7 -7 -52 -58 -99 -112 l-85 -99 -865 0 -865 0 53 68 c30 37
56 69 59 72 3 3 35 41 70 85 36 44 67 82 70 85 8 6 666 809 744 907 57 71 60
73 105 74 25 1 57 2 71 4 14 1 70 5 125 10 55 4 101 8 102 8 1 1 20 3 42 4 39
3 42 1 79 -55z"/>
</g>
</svg>
