<?xml version="1.0" standalone="no"?>
<!DOCTYPE svg PUBLIC "-//W3C//DTD SVG 20010904//EN"
 "http://www.w3.org/TR/2001/REC-SVG-20010904/DTD/svg10.dtd">
<svg version="1.0" xmlns="http://www.w3.org/2000/svg"
 width="565.000000pt" height="565.000000pt" viewBox="0 0 565.000000 565.000000"
 preserveAspectRatio="xMidYMid meet">
<metadata>
Created by potrace 1.14, written by Peter Selinger 2001-2017
</metadata>
<g transform="translate(0.000000,565.000000) scale(0.100000,-0.100000)"
fill="#000000" stroke="none">
<path d="M113 4858 c-1 -7 -6 -35 -11 -63 -11 -52 -9 -235 3 -294 13 -65 53
-170 89 -235 52 -93 120 -162 234 -239 122 -82 178 -137 208 -202 25 -53 31
-114 13 -132 -5 -5 -21 -8 -35 -5 -33 6 -124 90 -149 136 -11 20 -24 36 -28
36 -17 0 0 -117 24 -165 43 -86 143 -154 260 -175 57 -10 216 -7 309 7 30 4
111 8 180 8 145 0 209 -16 289 -69 28 -19 51 -31 51 -27 0 4 -17 34 -38 67
-67 103 -169 177 -328 238 -54 21 -118 47 -141 57 -24 11 -46 19 -50 19 -12 0
-164 79 -195 101 -14 11 -31 19 -36 19 -6 0 -12 3 -14 8 -2 4 -22 21 -46 39
-239 173 -442 461 -546 771 -35 105 -42 122 -43 100z"/>
<path d="M5447 4782 c-85 -265 -229 -495 -422 -680 -146 -140 -294 -234 -475
-302 -47 -17 -94 -35 -105 -40 -11 -5 -49 -21 -85 -36 -129 -55 -243 -150
-296 -247 l-27 -50 37 28 c98 75 261 99 488 72 231 -27 348 -16 450 44 102 60
156 158 149 272 -2 26 -15 21 -29 -12 -16 -36 -81 -105 -123 -130 -82 -50
-103 37 -36 152 33 55 84 102 189 171 47 31 107 78 133 104 131 130 207 324
206 532 0 79 -14 196 -24 206 -1 2 -15 -36 -30 -84z"/>
<path d="M445 4690 c24 -125 94 -301 159 -400 51 -78 175 -193 261 -243 82
-47 205 -99 375 -157 248 -86 402 -170 510 -279 95 -96 125 -153 125 -237 0
-73 -20 -108 -76 -136 -113 -56 -283 -5 -411 124 l-58 58 0 -57 c0 -113 86
-236 215 -307 33 -18 98 -48 145 -66 310 -120 482 -230 615 -395 74 -93 100
-155 100 -245 0 -88 -12 -112 -124 -255 -91 -115 -113 -171 -117 -293 -2 -70
2 -104 16 -143 11 -28 21 -54 24 -56 3 -3 10 14 16 38 48 177 208 283 289 192
36 -41 26 -95 -44 -236 -56 -112 -59 -121 -58 -190 1 -39 9 -92 17 -117 41
-111 67 -152 58 -90 -11 79 30 179 88 214 35 20 54 20 74 0 13 -13 16 -39 15
-142 0 -70 2 -150 5 -178 11 -94 65 -234 114 -294 21 -25 21 -25 36 -5 35 45
76 136 97 210 18 66 22 107 23 237 1 184 7 199 70 178 65 -21 107 -97 108
-193 1 -53 2 -56 15 -37 35 50 57 135 57 220 1 84 0 86 -56 195 -61 117 -71
149 -61 197 12 63 98 80 175 35 62 -36 109 -105 133 -197 l13 -45 15 35 c68
157 29 337 -106 484 -43 48 -88 121 -101 168 -42 139 44 300 245 463 110 89
211 145 388 214 84 34 181 76 214 94 81 42 161 122 193 190 23 51 38 136 27
162 -2 7 -31 -15 -66 -50 -203 -203 -501 -180 -481 38 7 69 46 139 122 215
113 114 233 178 532 287 217 79 325 127 407 183 137 93 238 223 307 396 28 69
79 254 66 239 -4 -4 -31 -44 -61 -87 -110 -163 -285 -309 -470 -395 -115 -53
-319 -116 -469 -146 -593 -117 -850 -230 -1034 -456 -46 -56 -115 -180 -117
-209 0 -8 -5 -4 -10 9 -15 39 -17 239 -2 326 38 226 153 307 344 242 l66 -23
-10 31 c-43 127 -191 233 -366 265 -55 10 -90 12 -357 25 -66 3 -132 8 -147
10 -15 3 -37 7 -50 9 -102 18 -198 72 -237 135 -30 49 -39 51 -35 9 12 -159
120 -277 313 -345 45 -15 52 -21 47 -38 -27 -86 -32 -161 -16 -225 5 -19 21
-80 35 -135 29 -110 46 -295 27 -295 -6 0 -11 5 -11 11 0 27 -66 142 -116 203
-98 119 -243 220 -412 287 -143 57 -223 79 -542 149 -397 86 -536 137 -725
263 -86 57 -243 218 -304 312 -46 70 -52 75 -46 45z"/>
<path d="M610 3417 c0 -19 96 -160 136 -200 77 -78 158 -108 329 -122 140 -11
203 -24 267 -55 l38 -18 -12 21 c-14 29 -66 97 -92 122 -80 78 -159 112 -369
159 -147 33 -258 68 -284 89 -7 5 -13 7 -13 4z"/>
<path d="M4944 3400 c-38 -22 -137 -50 -299 -85 -161 -35 -264 -84 -337 -164
-30 -32 -64 -75 -77 -96 l-22 -38 24 16 c21 13 82 34 127 43 16 3 77 10 170
20 204 21 277 56 366 177 45 60 89 136 82 142 -2 1 -17 -6 -34 -15z"/>
<path d="M439 3370 c-12 -140 25 -281 105 -400 121 -181 349 -313 611 -354
121 -19 139 -20 310 -31 55 -3 132 -8 170 -11 269 -19 451 -74 595 -180 33
-24 63 -44 66 -44 14 0 -72 143 -117 193 -134 151 -358 248 -649 282 -108 13
-181 23 -280 41 -416 74 -641 207 -776 456 -18 35 -34 56 -35 48z"/>
<path d="M5130 3338 c-33 -70 -120 -179 -194 -240 -141 -118 -374 -204 -659
-243 -27 -4 -56 -8 -65 -10 -20 -3 -90 -13 -152 -20 -25 -3 -56 -7 -70 -10
-14 -3 -36 -7 -50 -10 -71 -13 -91 -18 -165 -42 -228 -74 -395 -211 -468 -385
l-16 -37 62 46 c176 129 355 176 767 198 118 7 203 14 240 20 14 2 45 7 70 10
25 3 81 16 125 27 310 82 518 271 585 531 15 62 25 207 14 207 -2 0 -13 -19
-24 -42z"/>
</g>
</svg>
