<?xml version="1.0" standalone="no"?>
<svg xmlns:xlink="http://www.w3.org/1999/xlink" id="wave" style="transform:rotate(180deg); transition: 0.3s" viewBox="0 0 1440 130" version="1.1" xmlns="http://www.w3.org/2000/svg"><defs><linearGradient id="sw-gradient-0" x1="0" x2="0" y1="1" y2="0"><stop stop-color="rgba(44, 130, 181, 1)" offset="0%"/><stop stop-color="rgba(44, 130, 181, 1)" offset="100%"/></linearGradient></defs><path style="transform:translate(0, 0px); opacity:1" fill="url(#sw-gradient-0)" d="M0,52L80,62.8C160,74,320,95,480,101.8C640,108,800,100,960,88.8C1120,78,1280,65,1440,67.2C1600,69,1760,87,1920,78C2080,69,2240,35,2400,28.2C2560,22,2720,43,2880,54.2C3040,65,3200,65,3360,69.3C3520,74,3680,82,3840,82.3C4000,82,4160,74,4320,67.2C4480,61,4640,56,4800,65C4960,74,5120,95,5280,99.7C5440,104,5600,91,5760,84.5C5920,78,6080,78,6240,65C6400,52,6560,26,6720,21.7C6880,17,7040,35,7200,39C7360,43,7520,35,7680,30.3C7840,26,8000,26,8160,34.7C8320,43,8480,61,8640,56.3C8800,52,8960,26,9120,21.7C9280,17,9440,35,9600,49.8C9760,65,9920,78,10080,84.5C10240,91,10400,91,10560,91C10720,91,10880,91,11040,86.7C11200,82,11360,74,11440,69.3L11520,65L11520,130L11440,130C11360,130,11200,130,11040,130C10880,130,10720,130,10560,130C10400,130,10240,130,10080,130C9920,130,9760,130,9600,130C9440,130,9280,130,9120,130C8960,130,8800,130,8640,130C8480,130,8320,130,8160,130C8000,130,7840,130,7680,130C7520,130,7360,130,7200,130C7040,130,6880,130,6720,130C6560,130,6400,130,6240,130C6080,130,5920,130,5760,130C5600,130,5440,130,5280,130C5120,130,4960,130,4800,130C4640,130,4480,130,4320,130C4160,130,4000,130,3840,130C3680,130,3520,130,3360,130C3200,130,3040,130,2880,130C2720,130,2560,130,2400,130C2240,130,2080,130,1920,130C1760,130,1600,130,1440,130C1280,130,1120,130,960,130C800,130,640,130,480,130C320,130,160,130,80,130L0,130Z"/></svg>