<?xml version="1.0" encoding="UTF-8"?>
<svg width="128pt" height="128pt" version="1.1" viewBox="0 0 128 128" xmlns="http://www.w3.org/2000/svg">
 <g class="svg-fill" fill="#a1051c">
  <path d="m68 8c0-2.2109-1.7891-4-4-4s-4 1.7891-4 4v8c0 2.2109 1.7891 4 4 4s4-1.7891 4-4z"/>
  <path d="m68 112c0-2.2109-1.7891-4-4-4s-4 1.7891-4 4v8c0 2.2109 1.7891 4 4 4s4-1.7891 4-4z"/>
  <path d="m124 64c0 2.2109-1.7891 4-4 4h-8c-2.2109 0-4-1.7891-4-4s1.7891-4 4-4h8c2.2109 0 4 1.7891 4 4z"/>
  <path d="m16 68c2.2109 0 4-1.7891 4-4s-1.7891-4-4-4h-8c-2.2109 0-4 1.7891-4 4s1.7891 4 4 4z"/>
  <path d="m106.43 21.574c1.5625 1.5625 1.5625 4.0938 0 5.6562l-5.6562 5.6562c-1.5625 1.5625-4.0938 1.5625-5.6562 0s-1.5625-4.0938 0-5.6562l5.6562-5.6562c1.5625-1.5625 4.0938-1.5625 5.6562 0z"/>
  <path d="m32.887 100.77c1.5625-1.5625 1.5625-4.0938 0-5.6562s-4.0938-1.5625-5.6562 0l-5.6562 5.6562c-1.5625 1.5625-1.5625 4.0938 0 5.6562s4.0938 1.5625 5.6562 0z"/>
  <path d="m106.43 106.43c-1.5625 1.5625-4.0938 1.5625-5.6562 0l-5.6562-5.6562c-1.5625-1.5625-1.5625-4.0938 0-5.6562s4.0938-1.5625 5.6562 0l5.6562 5.6562c1.5625 1.5625 1.5625 4.0938 0 5.6562z"/>
  <path d="m27.23 32.887c1.5625 1.5625 4.0938 1.5625 5.6562 0s1.5625-4.0938 0-5.6562l-5.6562-5.6562c-1.5625-1.5625-4.0938-1.5625-5.6562 0s-1.5625 4.0938 0 5.6562z"/>
  <path d="m64 32c-17.672 0-32 14.328-32 32s14.328 32 32 32 32-14.328 32-32c0-4.4805-0.92188-8.7578-2.5938-12.641-0.69922-1.6211-2.3711-2.5898-4.1211-2.3945-1.75 0.19531-3.1641 1.5117-3.4883 3.2461-1.0352 5.5703-5.9258 9.7891-11.797 9.7891-6.6289 0-12-5.3711-12-12 0-4.4688 2.4414-8.375 6.0859-10.445 1.5273-0.86719 2.3125-2.6367 1.9258-4.3555-0.38672-1.7148-1.8516-2.9805-3.6055-3.1094-0.79688-0.058594-1.5977-0.089844-2.4062-0.089844z"/>
 </g>
</svg>
