<?xml version="1.0" encoding="UTF-8"?>
<svg width="128pt" height="128pt" version="1.1" viewBox="0 0 128 128" xmlns="http://www.w3.org/2000/svg">
 <path d="m92.199 85.398c-27.398 0-49.801-22.199-49.801-49.801 0-10.199 3.1992-19.801 8.3984-27.801-24.598 6.4023-42.797 28.805-42.797 55.402 0 31.402 25.398 56.801 56.801 56.801 26.602 0 49-18.199 55.199-43-8 5.3984-17.398 8.3984-27.801 8.3984zm-27.398 26.602c-26.801 0-48.801-22-48.801-48.801 0-15.801 7.6016-30.199 19.801-39.199-0.80078 3.8008-1.1992 7.8008-1.1992 11.801 0 31.801 26 57.801 57.801 57.801 4 0 8-0.39844 11.801-1.1992-9.0039 11.996-23.402 19.598-39.402 19.598z" fill="#ffb84a"/>
</svg>
