<?xml version="1.0" encoding="UTF-8"?>
<svg width="128pt" height="128pt" version="1.1" viewBox="0 0 128 128" xmlns="http://www.w3.org/2000/svg">
 <g fill="#a1051c">
  <path d="m58.668 41.332h5.332c0.73828 0 1.332 0.73828 1.332 1.332v4c0 0.73828-0.59766 1.332-1.332 1.332h-5.332c-0.73828 0-1.332-0.73828-1.332-1.332v-4c0-0.73828 0.59766-1.332 1.332-1.332z"/>
  <path d="m48 41.332h5.332c0.73828 0 1.332 0.73828 1.332 1.332v4c0 0.73828-0.59766 1.332-1.332 1.332h-5.332c-0.73828 0-1.332-0.73828-1.332-1.332v-4c0-0.73828 0.59766-1.332 1.332-1.332z"/>
  <path d="m49.332 57.332c-0.13672-8 1.3242-6.5312-6.668-6.668-0.73437 0-1.332 0.59766-1.332 1.332v5.332c0 0.73438 0.59766 1.332 1.332 1.332h5.332c0.73828 0 1.332-0.59766 1.332-1.332z"/>
  <path d="m37.332 41.332h5.332c0.73828 0 1.332 0.73828 1.332 1.332v4c0 0.73828-0.59766 1.332-1.332 1.332h-5.332c-0.73828 0-1.332-0.73828-1.332-1.332v-4c0-0.73828 0.59766-1.332 1.332-1.332z"/>
  <path d="m58.668 50.668c-8 0.13672-6.5312-1.3242-6.668 6.668 0 0.73437 0.59766 1.332 1.332 1.332h5.332c0.73828 0 1.332-0.59766 1.332-1.332v-5.332c0-0.73828-0.59766-1.332-1.332-1.332z"/>
  <path d="m50.668 61.332c-8 0.13672-6.5312-1.3242-6.668 6.668 0 0.73438 0.59766 1.332 1.332 1.332h5.332c0.73828 0 1.332-0.59766 1.332-1.332v-5.332c0-0.73828-0.59766-1.332-1.332-1.332z"/>
  <path d="m96 50.668h9.332c0.73828 0 1.332 0.73828 1.332 1.332v5.332c0 0.73828-0.59766 1.332-1.332 1.332h-9.332c-0.73828 0-1.332-0.73828-1.332-1.332v-5.332c0-0.73828 0.59766-1.332 1.332-1.332z"/>
  <path d="m90.668 41.332h5.332c0.73828 0 1.332 0.73828 1.332 1.332v4c0 0.73828-0.59766 1.332-1.332 1.332h-5.332c-0.73828 0-1.332-0.73828-1.332-1.332v-4c0-0.73828 0.59766-1.332 1.332-1.332z"/>
  <path d="m113.33 72h2.668c0.73828 0 1.332 0.73828 1.332 1.332v4c0 0.73828-0.59766 1.332-1.332 1.332h-2.668c-0.73828 0-1.332-0.73828-1.332-1.332v-4c0-0.73828 0.59766-1.332 1.332-1.332z"/>
  <path d="m116 41.332h-14.668c-0.73828 0-1.332 0.59766-1.332 1.332v4c0 0.73438 0.59766 1.332 1.332 1.332h14.668c0.73828 0 1.332-0.59766 1.332-1.332v-4c0-0.73828-0.59766-1.332-1.332-1.332z"/>
  <path d="m116 50.668h-5.332c-0.73828 0-1.332 0.59766-1.332 1.332v17.332c0.83984-0.003906 5.7148 0.003907 6.668 0 0.73828 0 1.332-0.59766 1.332-1.332v-16c0-0.73828-0.59766-1.332-1.332-1.332z"/>
  <path d="m117.33 25.332h-50.664c0-0.98828-0.54688-1.8398-1.332-2.293-0.027344-3.7188-0.58594-8.375-10.668-8.375-5.332 0-5.332-1.2812-5.332-6.6523-0.03125-1.7461-2.6328-1.7539-2.668 0 0 5.2148 0 9.3203 8 9.3203 7.5195 0 7.9727 2.4648 8 5.707-0.80078 0.45313-1.332 1.3086-1.332 2.293h-50.668c-2.9453 0-5.332 2.3867-5.332 5.332l-0.003907 48.004c0 2.9453 2.3867 5.332 5.332 5.332h36.84l1.5469 14.691c0.21484 2.0273 0.83984 3.9453 1.8398 5.7344l7.7461 13.535c1.1875 2.0781 3.3984 3.375 5.7852 3.375h27.574c2.1484 0 4.0781-1.293 4.9219-3.2812l3.9336-9.4414c1.1992-2.8945 1.8125-5.9453 1.8125-9.0547v-15.559h14.668c2.9453 0 5.332-2.3867 5.332-5.332l0.003907-48c0-2.9453-2.3867-5.332-5.332-5.332zm-6 5.332c2.6289 0.042969 2.6289 3.957 0 4-2.6289-0.042968-2.6289-3.957 0-4zm-6.668 0c2.6289 0.042969 2.6289 3.957 0 4-2.6289-0.042968-2.6289-3.957 0-4zm-6.668 0c2.6289 0.042969 2.6289 3.957 0 4-2.6289-0.042968-2.6289-3.957 0-4zm-83.332 1.332h12c1.7461 0.03125 1.7539 2.6328 0 2.668h-12c-1.7461-0.03125-1.7539-2.6328 0-2.668zm85.332 67.559c0.33984 5.2578-3.6914 12.672-5.5352 17.453-0.42578 1-1.3867 1.6523-2.4648 1.6523h-27.574c-1.4258 0-2.7617-0.77344-3.4648-2.0273l-7.7461-13.535c-0.82813-1.4531-1.332-3.0391-1.5195-4.6914l-1.5195-14.414-0.28125-2.668-0.19922-1.9336c-0.11719-1.0742 0.79297-2.0898 1.8789-2.0664 2.5898-0.054688 4.9648 2.0117 5.3203 4.5586l0.32031 2.1055 0.90625 5.8789c0.27734 2.4062 3.7422 3.1172 4.9219 0.98828 1.0039-1.6602 2.3984-3.6641 2.293-5.6797-0.003906-1.8516 0.003907-4.6602 0-6.5195 0.058594-4.582-0.11719-15.32 0.066407-20 0.41406-2.5156 3.8633-3.582 5.625-1.6797 0.625 0.625 0.97266 1.4531 0.97266 2.3477v19.332c0.03125 1.75 2.6367 1.7539 2.668 0v-27.332c0.10547-4.3828 6.5508-4.4023 6.668 0-0.003906 3.2539 0.003907 24.891 0 28.668 0 0.73828 0.59766 1.332 1.332 1.332 0.73438 0 1.332-0.59766 1.332-1.332v-23.332c0-1.8398 1.4922-3.332 3.332-3.332 1.7773-0.035156 3.3711 1.5391 3.332 3.332v2 25.332c0.019532 1.7461 2.6406 1.7578 2.668 0v-18c-0.089844-2.8945 3.7188-4.4648 5.6953-2.3477 1.4297 1.2031 0.875 4.0625 0.97266 5.6797v12c-0.019532 1.3984 0.015625 16.402 0 18.227zm-40.492-18.227c-0.17188-0.94531-0.49219-1.8398-0.98828-2.668h4.1484v2.668zm3.1602 2.668v1.1875c0.10938 1.3945-1.2773 3.1367-1.9062 4.293l-0.83984-5.4805zm57.332-4c0 0.73438-0.60156 1.332-1.332 1.332h-16v-2.668c8.0078-0.13281 6.5273 1.3164 6.668-6.668h-6.668v-2.668h2.668c0.73438 0 1.332-0.60156 1.332-1.332v-5.332c0-0.73438-0.60156-1.332-1.332-1.332h-4.9219c-1.9258-1.6562-5.0273-1.7539-7.0781-0.32031-0.082031-2.3945 0.50391-6.2148-1.332-8.1055v-0.90625c0-0.73438-0.60156-1.332-1.332-1.332h-5.332c-0.61328 0-1.1328 0.41406-1.2812 0.98828-0.011719 0-0.039063 0.011718-0.054688 0.027344 0.050781-1.3164-0.28125-2.625-1.0117-3.6797h2.3477c0.73828 0 1.332-0.59766 1.332-1.332v-4c0-0.73828-0.59766-1.332-1.332-1.332h-5.332c-0.73438 0-1.332 0.59766-1.332 1.332v2.7305c-0.89453-0.16016-1.8438 0.007812-2.668 0.30469v-3.0352c0-0.73828-0.59766-1.332-1.332-1.332h-5.332c-0.73438 0-1.332 0.59766-1.332 1.332v4c0 0.73438 0.59766 1.332 1.332 1.332h3.6836c-1.2695 1.5859-1.0078 4.4102-1.0156 6.3477-0.41406-0.28125-0.86719-0.50781-1.332-0.66797v-1.6797c0-0.73438-0.60156-1.332-1.332-1.332h-5.332c-0.73438 0-1.332 0.60156-1.332 1.332 0.058593 0.36719-0.16016 5.8125 0.16016 5.9609-0.27734 0.92187-0.125 3.7227-0.16016 4.707 0-0.73828-0.59766-1.332-1.332-1.332h-5.332c-0.73438 0-1.332 0.59766-1.332 1.332v5.332c0 0.73438 0.59766 1.332 1.332 1.332h5.332c0.73828 0 1.332-0.59766 1.332-1.332v4h-20c-0.73438 0-1.332 0.60156-1.332 1.332v4c0 0.73438 0.60156 1.332 1.332 1.332h4.3867c-0.10547 0.66016 0.12109 1.9922 0.17188 2.668h-37.906c-0.73438 0-1.332-0.60156-1.332-1.332v-29.332c0-0.25391 0.078125-0.46484 0.19922-0.66797-0.12109-0.19922-0.19922-0.41406-0.19922-0.66797v-9.332c0-0.73438 0.60156-1.332 1.332-1.332h109.34c0.73438 0 1.332 0.60156 1.332 1.332v40z"/>
  <path d="m40 61.332h-5.332c-0.73438 0-1.332 0.59766-1.332 1.332v5.332c0 0.73438 0.59766 1.332 1.332 1.332h6.668v-6.668c0-0.73828-0.59766-1.332-1.332-1.332z"/>
  <path d="m32 50.668c-0.73438 0-1.332 0.59766-1.332 1.332v5.332c0 0.73438 0.59766 1.332 1.332 1.332h5.332c0.73828 0 1.332-0.59766 1.332-1.332-0.13672-8 1.3242-6.5312-6.668-6.668z"/>
  <path d="m26.668 41.332h5.332c0.73828 0 1.332 0.73828 1.332 1.332v4c0 0.73828-0.59766 1.332-1.332 1.332h-5.332c-0.73828 0-1.332-0.73828-1.332-1.332v-4c0-0.73828 0.59766-1.332 1.332-1.332z"/>
  <path d="m12 41.332h9.332c0.73828 0 1.332 0.73828 1.332 1.332v4c0 0.73828-0.59766 1.332-1.332 1.332h-9.332c-0.73828 0-1.332-0.73828-1.332-1.332v-4c0-0.73828 0.59766-1.332 1.332-1.332z"/>
  <path d="m30.668 72h6.668c0.73828 0 1.332 0.73828 1.332 1.332v4c0 0.73828-0.59766 1.332-1.332 1.332h-6.668c-0.73828 0-1.332-0.73828-1.332-1.332v-4c0-0.73828 0.59766-1.332 1.332-1.332z"/>
  <path d="m12 50.668h14.668c0.73828 0 1.332 0.73828 1.332 1.332v5.332c0 0.73828-0.59766 1.332-1.332 1.332h-14.668c-0.73828 0-1.332-0.73828-1.332-1.332v-5.332c0-0.73828 0.59766-1.332 1.332-1.332z"/>
  <path d="m24 61.332c-0.73438 0-1.332 0.59766-1.332 1.332v5.332c0 0.73438 0.59766 1.332 1.332 1.332h5.332c0.73828 0 1.332-0.59766 1.332-1.332-0.13672-8 1.3242-6.5312-6.668-6.668z"/>
  <path d="m12 72h13.332c0.73828 0 1.332 0.73828 1.332 1.332v4c0 0.73828-0.59766 1.332-1.332 1.332h-13.332c-0.73828 0-1.332-0.73828-1.332-1.332v-4c0-0.73828 0.59766-1.332 1.332-1.332z"/>
  <path d="m12 61.332h6.668c0.73828 0 1.332 0.73828 1.332 1.332v5.332c0 0.73828-0.59766 1.332-1.332 1.332h-6.668c-0.73828 0-1.332-0.73828-1.332-1.332v-5.332c0-0.73828 0.59766-1.332 1.332-1.332z"/>
 </g>
</svg>
