<?xml version="1.0" encoding="UTF-8"?>
<svg width="128pt" height="128pt" version="1.1" viewBox="0 0 128 128" xmlns="http://www.w3.org/2000/svg">
 <g fill="#a1051c">
  <path d="m11.863 93.617h55.672c2.9219 0 5.3281-0.53125 5.457-1.1914h0.003906v-2.1133c0-0.21484-0.17578-0.39062-0.39062-0.39062h-5.6875l0.003906-33.836c0-1.1992-0.97266-2.1719-2.1836-2.1719h-50.074c-1.2148 0-2.1797 0.97266-2.1797 2.1719v33.836h-5.6914c-0.21484 0-0.39453 0.17578-0.39453 0.39062v2.1133h0.007812c0.125 0.66016 2.5312 1.1914 5.457 1.1914zm32-2.3633h-8.3242c-0.45703 0-0.83203-0.375-0.83203-0.83203 0-0.15234 0.042969-0.29297 0.11719-0.41797h9.7539c0.074219 0.125 0.11719 0.26562 0.11719 0.41797 0 0.45703-0.375 0.83203-0.83203 0.83203zm-28.383-34.086c0-0.12891 0.10156-0.23047 0.22266-0.23047h47.996c0.125 0 0.22266 0.10156 0.22266 0.23047v29.738c0 0.12891-0.097656 0.23828-0.22266 0.23828h-47.996c-0.125 0-0.22266-0.10938-0.22266-0.23828z"/>
  <path d="m102.95 47.051v-12.766c0-1.9141-1.5703-3.4727-3.4883-3.4727l-60.484 0.003906c-1.918 0-3.4883 1.5547-3.4883 3.4727v17.27h3.2852v-17.273c0-0.12109 0.082031-0.20312 0.20312-0.20312h60.484c0.12109 0 0.19922 0.082031 0.19922 0.20312v12.766z"/>
  <path d="m85.391 97.184h11.484c0.65234 0 1.1797-0.52734 1.1797-1.1797v-23.598c0-0.65234-0.52734-1.1797-1.1797-1.1797h-11.484c-0.65234 0-1.1797 0.52734-1.1797 1.1797v23.598c-0.003907 0.65234 0.52344 1.1797 1.1797 1.1797zm5.7422-0.75c-0.50391 0-0.91406-0.41016-0.91406-0.91406 0-0.50391 0.40625-0.91406 0.91406-0.91406 0.50391 0 0.91406 0.41016 0.91406 0.91406-0.003906 0.50391-0.41016 0.91406-0.91406 0.91406zm-6.1641-22.965c0-0.12891 0.10547-0.23438 0.23828-0.23438h11.852c0.12891 0 0.23828 0.10547 0.23828 0.23438l-0.003906 20.137c0 0.12891-0.10547 0.23438-0.23828 0.23438h-11.852c-0.12891 0-0.23828-0.10547-0.23828-0.23438z"/>
  <path d="m119.91 49.41h-29.453c-0.93359 0-1.6953 0.75781-1.6953 1.6914v17.766h3.3867l0.003907-15.395c0-0.14062 0.11328-0.25391 0.25391-0.25391h25.559c0.13672 0 0.25391 0.11328 0.25391 0.25391v34.359c0 0.14062-0.11328 0.25391-0.25391 0.25391h-17.547v3.8125h19.496c0.93359-0.003907 1.6914-0.76172 1.6914-1.6953v-39.102c0-0.9375-0.75781-1.6914-1.6953-1.6914zm-14.727 41.656c-0.59375 0-1.0781-0.48438-1.0781-1.0781s0.48438-1.0781 1.0781-1.0781 1.0781 0.48438 1.0781 1.0781c0.003907 0.59375-0.48047 1.0781-1.0781 1.0781z"/>
  <path d="m81.859 72.223c0.085937-1.6328 1.2812-2.9766 2.8438-3.2852h-15.426v13.34c6.9336-0.003906 12.52-0.78125 12.52-2.7891 0-1.4766-3.1836-2.8516-7.7227-3.4375v-3.8242z"/>
 </g>
</svg>
