<?xml version="1.0" encoding="UTF-8"?>
<svg width="128pt" height="128pt" version="1.1" viewBox="0 0 128 128" xmlns="http://www.w3.org/2000/svg">
 <g>
  <path d="m36.602 61c-0.60156-0.19922-1.3984 0-2 0.60156-0.60156 0.60156-0.80078 1.1992-0.60156 2 0.60156 2.1992 1 4.3984 1 6.3984 0 13.199-10.801 24-24 24-2.1992 0-4.3984-0.39844-6.3984-1-0.60156-0.19922-1.3984 0-2 0.60156-0.60156 0.60156-0.80078 1.1992-0.60156 2 3.3984 12 14.602 20.398 27 20.398 15.398 0 28-12.602 28-28 0-12.398-8.3984-23.602-20.398-27z"/>
  <path d="m106.4 108.4c-0.60156 0-1-0.19922-1.3984-0.60156l-84.801-84.797c-0.80078-0.80078-0.80078-2 0-2.8008s2-0.80078 2.8008 0l84.801 84.801c0.80078 0.80078 0.80078 2 0 2.8008-0.40234 0.39844-0.80078 0.59766-1.4023 0.59766z"/>
  <path d="m110 40c0 6.6289-5.3711 12-12 12s-12-5.3711-12-12 5.3711-12 12-12 12 5.3711 12 12"/>
  <path d="m98 24c-1.1992 0-2-0.80078-2-2v-8c0-1.1992 0.80078-2 2-2s2 0.80078 2 2v8c0 1.1992-0.80078 2-2 2z"/>
  <path d="m98 68c-1.1992 0-2-0.80078-2-2v-8c0-1.1992 0.80078-2 2-2s2 0.80078 2 2v8c0 1.1992-0.80078 2-2 2z"/>
  <path d="m85.199 29.199c-0.60156 0-1-0.19922-1.3984-0.60156l-5.6016-5.6016c-0.80078-0.80078-0.80078-2 0-2.8008 0.80078-0.80078 2-0.80078 2.8008 0l5.6016 5.6016c0.80078 0.80078 0.80078 2 0 2.8008-0.40234 0.40234-0.80078 0.60156-1.4023 0.60156z"/>
  <path d="m116.4 60.398c-0.60156 0-1-0.19922-1.3984-0.60156l-5.6016-5.6016c-0.80078-0.80078-0.80078-2 0-2.8008 0.80078-0.80078 2-0.80078 2.8008 0l5.6016 5.6016c0.80078 0.80078 0.80078 2 0 2.8008-0.40234 0.40234-1 0.60156-1.4023 0.60156z"/>
  <path d="m80 42h-8c-1.1992 0-2-0.80078-2-2s0.80078-2 2-2h8c1.1992 0 2 0.80078 2 2s-0.80078 2-2 2z"/>
  <path d="m124 42h-8c-1.1992 0-2-0.80078-2-2s0.80078-2 2-2h8c1.1992 0 2 0.80078 2 2s-0.80078 2-2 2z"/>
  <path d="m79.602 60.398c-0.60156 0-1-0.19922-1.3984-0.60156-0.80078-0.80078-0.80078-2 0-2.8008l5.6016-5.6016c0.80078-0.80078 2-0.80078 2.8008 0s0.80078 2 0 2.8008l-5.6016 5.6016c-0.40234 0.40234-0.80469 0.60156-1.4023 0.60156z"/>
  <path d="m110.8 29.199c-0.60156 0-1-0.19922-1.3984-0.60156-0.80078-0.80078-0.80078-2 0-2.8008l5.6016-5.6016c0.80078-0.80078 2-0.80078 2.8008 0 0.80078 0.80078 0.80078 2 0 2.8008l-5.6016 5.6016c-0.40234 0.40234-1.0039 0.60156-1.4023 0.60156z"/>
 </g>
</svg>
