<?xml version="1.0" encoding="UTF-8"?>
<svg width="128pt" height="128pt" version="1.1" viewBox="0 0 128 128" xmlns="http://www.w3.org/2000/svg">
 <g fill="#A1061D">
  <path d="m60 8h8v20h-8z"/>
  <path d="m60 100h8v20h-8z"/>
  <path d="m100 60h20v8h-20z"/>
  <path d="m8 60h20v8h-20z"/>
  <path d="m86.625 35.613 14.141-14.141 5.6562 5.6562-14.141 14.141z"/>
  <path d="m21.574 100.87 14.141-14.141 5.6562 5.6562-14.141 14.141z"/>
  <path d="m86.73 92.289 5.6562-5.6562 14.141 14.141-5.6562 5.6562z"/>
  <path d="m21.469 27.23 5.6562-5.6562 14.141 14.141-5.6562 5.6562z"/>
  <path d="m64 36c-15.398 0-28 12.602-28 28s12.602 28 28 28 28-12.602 28-28-12.602-28-28-28zm0 48c-11 0-20-9-20-20s9-20 20-20 20 9 20 20-9 20-20 20z"/>
 </g>
</svg>
