<?xml version="1.0" encoding="UTF-8" standalone="no" ?>
<!DOCTYPE svg PUBLIC "-//W3C//DTD SVG 1.1//EN" "http://www.w3.org/Graphics/SVG/1.1/DTD/svg11.dtd">
<svg xmlns="http://www.w3.org/2000/svg" xmlns:xlink="http://www.w3.org/1999/xlink" version="1.1" width="1280" height="1024" viewBox="375 300 1000 400" xml:space="preserve">
<desc>Created with Fabric.js 5.3.0</desc>
<defs>
</defs>
<g transform="matrix(1 0 0 1 640 512)" id="background-logo"  >
<rect style="stroke: none; stroke-width: 0; stroke-dasharray: none; stroke-linecap: butt; stroke-dashoffset: 0; stroke-linejoin: miter; stroke-miterlimit: 4; fill: rgb(255,255,255); fill-opacity: 0; fill-rule: nonzero; opacity: 1;"  paint-order="stroke"  x="-640" y="-512" rx="0" ry="0" width="1280" height="1024" />
</g>
<g transform="matrix(1.9211538461538462 0 0 1.9211538461538462 637.7176692307693 720.7981174146045)" id="text-logo"  >
<g style=""  paint-order="stroke"   >
		<g transform="matrix(1 0 0 1 0 0)" id="text-logo-path-0"  >
<path style="stroke: none; stroke-width: 0; stroke-dasharray: none; stroke-linecap: butt; stroke-dashoffset: 0; stroke-linejoin: miter; stroke-miterlimit: 4; fill: rgb(68,157,209); fill-rule: nonzero; opacity: 1;"  paint-order="stroke"  transform=" translate(-143.51500000000001, 24.090000000000003)" d="M 17.16 0.66 C 26.14 0.66 31.75 -3.96 31.75 -10.49 C 31.75 -16.76 27.39 -19.14 20.26 -20.72 C 15.44 -21.71 13.33 -21.98 13.33 -23.63 C 13.33 -24.95 14.72 -25.61 16.83 -25.61 C 19.21 -25.61 20.66 -24.82 22.11 -22.77 L 30.49 -26.93 C 27.59 -31.02 22.57 -33.66 16.83 -33.66 C 10.1 -33.66 2.9 -29.96 2.9 -23.17 C 2.9 -16.37 8.32 -14.92 14.98 -13 C 19.4 -11.81 21.58 -11.48 21.58 -9.7 C 21.58 -8.25 19.27 -7.33 17.16 -7.33 C 14.19 -7.33 11.48 -7.85 9.9 -11.02 L 1.65 -6.86 C 4.62 -2.51 9.9 0.66 17.16 0.66 Z M 52.34 0.66 C 56.1 0.66 59.4 -0.33 61.97 -2.18 L 61.97 0 L 72.53 0 L 72.53 -33 L 61.97 -33 L 61.97 -30.82 C 59.4 -32.67 56.17 -33.66 52.34 -33.66 C 42.7 -33.66 36.17 -27.13 36.17 -16.5 C 36.17 -6.27 42.31 0.66 52.34 0.66 Z M 46.73 -16.5 C 46.73 -20.86 49.83 -23.63 54.32 -23.63 C 58.87 -23.63 61.78 -20.79 61.78 -16.5 C 61.78 -12.14 58.74 -9.37 54.32 -9.37 C 49.63 -9.37 46.73 -12.21 46.73 -16.5 Z M 80.26 0 L 90.82 0 L 90.82 -19.14 C 90.82 -22.51 92.47 -24.68 95.83 -24.68 C 99.07 -24.68 100.65 -22.51 100.65 -19.87 L 100.65 0 L 111.21 0 L 111.21 -19.6 C 111.21 -29.11 105.67 -33.66 98.41 -33.66 C 95.44 -33.66 93.26 -32.6 90.82 -31.09 L 90.82 -33 L 80.26 -33 Z M 133.25 0.66 C 137.02 0.66 140.32 -0.33 142.89 -2.18 L 142.89 0 L 153.45 0 L 153.45 -46.2 L 142.89 -46.2 L 142.89 -30.82 C 140.32 -32.67 137.08 -33.66 133.25 -33.66 C 123.62 -33.66 117.08 -27.13 117.08 -16.5 C 117.08 -6.27 123.22 0.66 133.25 0.66 Z M 127.64 -16.5 C 127.64 -20.86 130.75 -23.63 135.23 -23.63 C 139.79 -23.63 142.69 -20.79 142.69 -16.5 C 142.69 -12.14 139.66 -9.37 135.23 -9.37 C 130.55 -9.37 127.64 -12.21 127.64 -16.5 Z M 182.09 0.66 C 192.13 0.66 198.26 -6.27 198.26 -16.5 C 198.26 -27.13 191.73 -33.66 182.09 -33.66 C 177.94 -33.66 174.44 -32.47 171.8 -30.29 L 171.8 -46.2 L 161.24 -46.2 L 161.24 0 L 171.8 0 L 171.8 -2.71 C 174.5 -0.53 178 0.66 182.09 0.66 Z M 172.66 -16.5 C 172.66 -20.79 175.56 -23.63 180.11 -23.63 C 184.6 -23.63 187.7 -20.86 187.7 -16.5 C 187.7 -12.21 184.8 -9.37 180.11 -9.37 C 175.69 -9.37 172.66 -12.14 172.66 -16.5 Z M 205.66 0 L 216.22 0 L 216.22 -33 L 205.66 -33 Z M 204.8 -42.7 C 204.8 -39.14 207.31 -36.5 211 -36.5 C 214.5 -36.5 217.14 -39.01 217.14 -42.7 C 217.14 -46.2 214.63 -48.84 211 -48.84 C 207.44 -48.84 204.8 -46.4 204.8 -42.7 Z M 223.61 0 L 234.17 0 L 234.17 -16.5 C 234.17 -19.87 238.19 -25.15 245.32 -23.5 L 245.32 -33.66 C 239.65 -34.12 235.82 -31.28 234.17 -27.79 L 234.17 -33 L 223.61 -33 Z M 265.19 0.66 C 268.95 0.66 272.25 -0.33 274.82 -2.18 L 274.82 0 L 285.38 0 L 285.38 -46.2 L 274.82 -46.2 L 274.82 -30.82 C 272.25 -32.67 269.02 -33.66 265.19 -33.66 C 255.55 -33.66 249.02 -27.13 249.02 -16.5 C 249.02 -6.27 255.16 0.66 265.19 0.66 Z M 259.58 -16.5 C 259.58 -20.86 262.68 -23.63 267.17 -23.63 C 271.72 -23.63 274.63 -20.79 274.63 -16.5 C 274.63 -12.14 271.59 -9.37 267.17 -9.37 C 262.48 -9.37 259.58 -12.21 259.58 -16.5 Z" stroke-linecap="round" />
</g>
</g>
</g>
<g transform="matrix(1.9211538461538462 0 0 1.9211538461538462 637.9251538461539 834.6661971430899)" id="tagline-067d9d5c-40fc-4e5e-9cb0-984cbb6e144c-logo"  >
<g style=""  paint-order="stroke"   >
		<g transform="matrix(1 0 0 1 0 0)" id="tagline-067d9d5c-40fc-4e5e-9cb0-984cbb6e144c-logo-path-0"  >
<path style="stroke: none; stroke-width: 0; stroke-dasharray: none; stroke-linecap: butt; stroke-dashoffset: 0; stroke-linejoin: miter; stroke-miterlimit: 4; fill: rgb(68,157,209); fill-rule: nonzero; opacity: 1;"  paint-order="stroke"  transform=" translate(-130.68, 12.720000000000002)" d="M 8.3 0 L 15.5 0 L 19.15 -12.1 L 22.75 0 L 29.95 0 L 37.87 -24 L 29.71 -24 L 26.3 -12.24 L 23.23 -24 L 15.02 -24 L 11.95 -12.24 L 8.54 -24 L 0.38 -24 Z M 52.42 0.48 C 57.02 0.48 61.3 -1.01 63.5 -4.32 L 57.6 -7.73 C 54.91 -4.99 49.63 -4.9 47.42 -9.26 L 64.37 -9.26 C 64.51 -10.13 64.61 -11.04 64.61 -12 C 64.61 -19.2 60.05 -24.48 52.42 -24.48 C 45.07 -24.48 39.79 -19.54 39.79 -12 C 39.79 -4.75 44.78 0.48 52.42 0.48 Z M 47.38 -15.22 C 47.52 -16.9 50.02 -18 52.37 -18 C 54.96 -18 57.12 -16.99 57.36 -15.22 Z M 84.1 0.48 C 91.39 0.48 95.86 -4.56 95.86 -12 C 95.86 -19.73 91.1 -24.48 84.1 -24.48 C 81.07 -24.48 78.53 -23.62 76.61 -22.03 L 76.61 -33.6 L 68.93 -33.6 L 68.93 0 L 76.61 0 L 76.61 -1.97 C 78.58 -0.38 81.12 0.48 84.1 0.48 Z M 77.23 -12 C 77.23 -15.12 79.34 -17.18 82.66 -17.18 C 85.92 -17.18 88.18 -15.17 88.18 -12 C 88.18 -8.88 86.06 -6.82 82.66 -6.82 C 79.44 -6.82 77.23 -8.83 77.23 -12 Z M 121.58 0.48 C 124.32 0.48 126.72 -0.24 128.59 -1.58 L 128.59 0 L 136.27 0 L 136.27 -33.6 L 128.59 -33.6 L 128.59 -22.42 C 126.72 -23.76 124.37 -24.48 121.58 -24.48 C 114.58 -24.48 109.82 -19.73 109.82 -12 C 109.82 -4.56 114.29 0.48 121.58 0.48 Z M 117.5 -12 C 117.5 -15.17 119.76 -17.18 123.02 -17.18 C 126.34 -17.18 128.45 -15.12 128.45 -12 C 128.45 -8.83 126.24 -6.82 123.02 -6.82 C 119.62 -6.82 117.5 -8.88 117.5 -12 Z M 153.26 0.48 C 157.87 0.48 162.14 -1.01 164.35 -4.32 L 158.45 -7.73 C 155.76 -4.99 150.48 -4.9 148.27 -9.26 L 165.22 -9.26 C 165.36 -10.13 165.46 -11.04 165.46 -12 C 165.46 -19.2 160.9 -24.48 153.26 -24.48 C 145.92 -24.48 140.64 -19.54 140.64 -12 C 140.64 -4.75 145.63 0.48 153.26 0.48 Z M 148.22 -15.22 C 148.37 -16.9 150.86 -18 153.22 -18 C 155.81 -18 157.97 -16.99 158.21 -15.22 Z M 179.42 0.48 C 185.95 0.48 190.03 -2.88 190.03 -7.63 C 190.03 -12.19 186.86 -13.92 181.68 -15.07 C 178.18 -15.79 176.64 -15.98 176.64 -17.18 C 176.64 -18.14 177.65 -18.62 179.18 -18.62 C 180.91 -18.62 181.97 -18.05 183.02 -16.56 L 189.12 -19.58 C 187.01 -22.56 183.36 -24.48 179.18 -24.48 C 174.29 -24.48 169.06 -21.79 169.06 -16.85 C 169.06 -11.9 172.99 -10.85 177.84 -9.46 C 181.06 -8.59 182.64 -8.35 182.64 -7.06 C 182.64 -6 180.96 -5.33 179.42 -5.33 C 177.26 -5.33 175.3 -5.71 174.14 -8.02 L 168.14 -4.99 C 170.3 -1.82 174.14 0.48 179.42 0.48 Z M 194.26 0 L 201.94 0 L 201.94 -24 L 194.26 -24 Z M 193.63 -31.06 C 193.63 -28.46 195.46 -26.54 198.14 -26.54 C 200.69 -26.54 202.61 -28.37 202.61 -31.06 C 202.61 -33.6 200.78 -35.52 198.14 -35.52 C 195.55 -35.52 193.63 -33.74 193.63 -31.06 Z M 218.16 0.48 C 220.9 0.48 223.3 -0.24 225.17 -1.58 C 225.17 1.63 222.24 3.07 219.12 3.07 C 216.72 3.07 214.27 2.21 212.98 0.67 L 206.16 4.56 C 209.81 8.74 214.18 10.08 219.6 10.08 C 226.8 10.08 232.85 6.14 232.85 -1.01 L 232.85 -24 L 225.17 -24 L 225.17 -22.42 C 223.3 -23.76 220.94 -24.48 218.16 -24.48 C 211.15 -24.48 206.4 -19.73 206.4 -12 C 206.4 -4.56 210.86 0.48 218.16 0.48 Z M 214.08 -12 C 214.08 -15.17 216.34 -17.18 219.6 -17.18 C 222.91 -17.18 225.02 -15.12 225.02 -12 C 225.02 -8.83 222.82 -6.82 219.6 -6.82 C 216.19 -6.82 214.08 -8.88 214.08 -12 Z M 238.46 0 L 246.14 0 L 246.14 -13.92 C 246.14 -16.37 247.34 -17.95 249.79 -17.95 C 252.14 -17.95 253.3 -16.37 253.3 -14.45 L 253.3 0 L 260.98 0 L 260.98 -14.26 C 260.98 -21.17 256.94 -24.48 251.66 -24.48 C 249.5 -24.48 247.92 -23.71 246.14 -22.61 L 246.14 -24 L 238.46 -24 Z" stroke-linecap="round" />
</g>
</g>
</g>
<g transform="matrix(2.262341080508815 0 0 2.262341080508815 640 373.3524528080351)" id="logo-logo"  >
<g style=""  paint-order="stroke"   >
		<g transform="matrix(0.20823975648954826 0 0 -0.20823975648954826 0 0)"  >
<path style="stroke: none; stroke-width: 1; stroke-dasharray: none; stroke-linecap: butt; stroke-dashoffset: 0; stroke-linejoin: miter; stroke-miterlimit: 4; fill: rgb(68,157,209); fill-rule: nonzero; opacity: 1;"  paint-order="stroke"  transform=" translate(-595.835, -537.915)" d="M 916.273 61.6602 L 894.563 61.6602 L 792.172 190.633 L 850 194.996 L 872.609 211.48 L 950 100.414 Z M 736.219 61.6602 L 574.871 61.6602 L 673.332 181.664 L 713.152 184.66799999999998 L 770 100.414 Z M 433.33200000000005 61.6602 L 374.168 61.6602 L 521.57 187.016 Z M 1003.33 711.664 L 1035 683.328 L 971.668 683.328 L 940 711.664 Z M 1074.64 61.6602 L 927.523 251.523 L 1010 311.664 L 1043.33 581.664 L 1130 591.664 L 1186.67 544.996 L 1186.67 648.328 L 1073.3300000000002 691.664 L 1013.3300000000002 751.664 L 873.332 751.664 L 786.465 641.105 L 733.039 524.164 L 733.039 742.805 L 525.832 925.828 L 525.832 835.828 L 338.332 1005.8299999999999 L 328.332 918.328 L 125 1075.83 L 125 891.664 L 355 566.664 L 652.598 470.727 L 615.188 423.11699999999996 L 325 516.664 L 125 799.273 L 125 739.273 L 265 426.664 L 539.957 327.367 L 138.445 61.6602 L 0 61.6602 L 0 0 L 1191.67 0 L 1191.67 61.6602 L 1074.64 61.6602" stroke-linecap="round" />
</g>
</g>
</g>
</svg>