<svg xml:space="preserve" viewBox="348.841984 245.078016 573.44 507.904" version="1.1" xmlns:xlink="http://www.w3.org/1999/xlink" xmlns="http://www.w3.org/2000/svg" style="max-height: 500px" width="573.44" height="507.904">
<desc>Created with Fabric.js 5.3.0</desc>
<defs>
</defs>
<g id="background-logo" transform="matrix(1 0 0 1 640 512)">
<rect height="1024" width="1280" ry="0" rx="0" y="-512" x="-640" paint-order="stroke" style="stroke: none; stroke-width: 0; stroke-dasharray: none; stroke-linecap: butt; stroke-dashoffset: 0; stroke-linejoin: miter; stroke-miterlimit: 4; fill: rgb(255,255,255); fill-opacity: 0; fill-rule: nonzero; opacity: 1;"/>
</g>
<g id="text-logo" transform="matrix(1.9211538461538462 0 0 1.9211538461538462 642.7533954453442 605.8212394204885)">
<g paint-order="stroke" style="">
		<g id="text-logo-path-0" transform="matrix(1 0 0 1 0 0)">
<linearGradient y2="62.55876000000002" x2="102.82800000000005" y1="-12.021239999999977" x1="102.82800000000002" gradientTransform="matrix(1 0 0 1 4.090000000000003 -46)" gradientUnits="userSpaceOnUse" id="SVGID_134382">
<stop style="stop-color:rgb(91,36,122);stop-opacity: 1" offset="0%"/>
<stop style="stop-color:rgb(44,130,181);stop-opacity: 1" offset="100%"/>
</linearGradient>
<path stroke-linecap="round" d="M 31.28 0 L 44.95 0 L 26.27 -24.62 L 42.77 -45.14 L 28.91 -45.14 L 15.11 -28.18 L 15.11 -45.14 L 4.09 -45.14 L 4.09 0 L 15.11 0 L 15.11 -10.63 L 19.21 -15.77 Z M 47.85 -45.14 L 47.85 0 L 58.87 0 L 58.87 -45.14 Z M 97.28 -34.72 L 97.28 -45.14 L 63.56 -45.14 L 63.56 -34.72 L 74.98 -34.72 L 74.98 0 L 85.93 0 L 85.93 -34.72 Z M 115.57 0.92 C 123.95 0.92 132.07 -3.76 132.07 -12.8 C 132.07 -21.71 125.07 -25.41 117.48 -27.72 C 115.43 -28.38 113.92 -28.97 112.93 -29.44 C 111.54 -30.1 110.55 -30.82 110.55 -32.47 C 110.55 -34.39 112.99 -35.11 114.51 -35.11 C 118.07 -35.11 119.86 -33.53 121.37 -30.43 L 130.75 -35.9 C 127.51 -42.57 121.9 -46 114.51 -46 C 106.46 -46 99.59 -40.79 99.59 -32.47 C 99.59 -23.96 105.67 -20.59 112.99 -18.41 C 115.3 -17.75 116.95 -17.16 118.07 -16.7 C 119.59 -16.1 121.11 -15.31 121.11 -13.46 C 121.11 -11.02 117.81 -9.83 115.83 -9.83 C 111.54 -9.83 108.57 -11.48 106.92 -15.58 L 97.68 -10.16 C 100.65 -2.57 107.65 0.92 115.57 0.92 Z M 164.87 0 L 176.62 0 L 160.05 -45.14 L 148.3 -45.14 L 131.8 0 L 143.55 0 L 146.45 -7.85 L 161.96 -7.85 Z M 150.22 -18.28 L 154.24 -29.17 L 158.14 -18.28 Z M 196.94 -45.14 L 179.72 -45.14 L 179.72 0 L 190.67 0 L 190.67 -14.52 L 196.94 -14.52 C 205.46 -14.52 212.32 -21.38 212.32 -29.83 C 212.32 -38.28 205.46 -45.14 196.94 -45.14 Z M 190.67 -24.95 L 190.67 -34.72 L 196.94 -34.72 C 199.78 -34.72 201.83 -32.67 201.83 -29.83 C 201.83 -27.06 199.72 -24.95 196.94 -24.95 Z" transform="translate(-108.205, 22.54)" paint-order="stroke" style="stroke: none; stroke-width: 0; stroke-dasharray: none; stroke-linecap: butt; stroke-dashoffset: 0; stroke-linejoin: miter; stroke-miterlimit: 4; fill: url(#SVGID_134382); fill-rule: nonzero; opacity: 1;"/>
</g>
</g>
</g>
<g id="tagline-067d9d5c-40fc-4e5e-9cb0-984cbb6e144c-logo" transform="matrix(1.9211538461538462 0 0 1.9211538461538462 637.0763858299596 707.1192095335895)">
<g paint-order="stroke" style="">
		<g id="tagline-067d9d5c-40fc-4e5e-9cb0-984cbb6e144c-logo-path-0" transform="matrix(1 0 0 1 0 0)">
<linearGradient y2="48.13728000000001" x2="144.65999999999997" y1="-6.102719999999977" x1="144.66000000000003" gradientTransform="matrix(1 0 0 1 0.47999999999998977 -36.1)" gradientUnits="userSpaceOnUse" id="SVGID_134383">
<stop style="stop-color:rgb(91,36,122);stop-opacity: 1" offset="0%"/>
<stop style="stop-color:rgb(44,130,181);stop-opacity: 1" offset="100%"/>
</linearGradient>
<path stroke-linecap="round" d="M 45.6 -35.52 L 41.95 -35.52 L 33.22 -4.61 L 24.77 -35.52 L 21.41 -35.52 L 12.86 -4.61 L 4.22 -35.52 L 0.48 -35.52 L 10.56 0 L 15.26 0 L 23.04 -29.09 L 30.82 0 L 35.52 0 Z M 69.7 0 L 69.7 -3.26 L 53.86 -3.26 L 53.86 -16.32 L 69.22 -16.32 L 69.22 -19.49 L 53.86 -19.49 L 53.86 -32.26 L 69.7 -32.26 L 69.7 -35.52 L 50.3 -35.52 L 50.3 0 Z M 98.88 -10.08 C 98.88 -14.02 96.77 -17.47 93.12 -19.01 C 95.33 -20.54 96.96 -23.04 96.96 -26.11 C 96.96 -28.61 95.9 -30.62 94.56 -32.26 C 92.74 -34.37 89.57 -35.52 85.73 -35.52 L 76.42 -35.52 L 76.42 0 L 86.11 0 C 90.91 0 94.37 -1.06 96.67 -3.84 C 98.21 -5.76 98.88 -7.49 98.88 -10.08 Z M 93.41 -26.3 C 93.41 -21.79 89.28 -20.35 85.54 -20.35 L 79.97 -20.35 L 79.97 -32.26 C 81.79 -32.26 84.48 -32.35 86.3 -32.35 C 91.87 -32.35 93.41 -28.22 93.41 -26.3 Z M 95.33 -10.08 C 95.33 -5.47 91.49 -3.26 86.78 -3.26 L 79.97 -3.26 L 79.97 -17.09 L 85.92 -17.09 C 90.91 -17.09 95.33 -15.36 95.33 -10.08 Z M 148.13 -17.86 C 148.13 -23.04 145.82 -27.17 142.94 -30.14 C 139.49 -33.79 133.92 -35.52 128.35 -35.52 L 118.18 -35.52 L 118.18 0 L 129.12 0 C 135.07 0 139.97 -2.02 142.85 -5.09 C 146.59 -9.02 148.13 -13.15 148.13 -17.86 Z M 144.58 -17.86 C 144.58 -12.96 142.56 -9.41 139.1 -6.53 C 135.94 -3.84 131.52 -3.26 127.49 -3.26 L 121.73 -3.26 L 121.73 -32.26 L 128.45 -32.26 C 133.54 -32.26 137.95 -30.72 141.02 -27.26 C 143.23 -24.86 144.58 -21.7 144.58 -17.86 Z M 173.66 0 L 173.66 -3.26 L 157.82 -3.26 L 157.82 -16.32 L 173.18 -16.32 L 173.18 -19.49 L 157.82 -19.49 L 157.82 -32.26 L 173.66 -32.26 L 173.66 -35.52 L 154.27 -35.52 L 154.27 0 Z M 199.58 -9.79 C 199.58 -13.63 197.47 -17.28 193.25 -19.1 L 186.53 -21.12 C 184.32 -21.79 182.5 -23.62 182.5 -26.5 C 182.5 -30.05 185.38 -32.64 188.64 -32.64 C 192.19 -32.64 194.69 -30.14 195.07 -26.5 L 198.72 -26.5 C 198.72 -32.06 194.3 -36.1 188.93 -36.1 C 183.36 -36.1 178.94 -32.06 178.94 -26.59 C 178.94 -23.04 180.86 -19.68 184.8 -18.24 C 187.49 -17.28 190.94 -16.42 190.94 -16.42 C 194.02 -15.36 196.03 -12.77 196.03 -9.79 C 196.03 -5.66 192.67 -2.78 188.74 -2.78 C 184.42 -2.78 181.63 -6.43 181.63 -9.98 L 177.79 -9.98 C 177.79 -3.55 182.88 0.67 188.83 0.67 C 194.59 0.67 199.58 -3.94 199.58 -9.79 Z M 208.42 0 L 208.42 -35.52 L 204.86 -35.52 L 204.86 0 Z M 252.19 -16.42 L 228.19 -16.42 L 228.19 -13.15 L 247.97 -13.15 C 246.24 -7.01 240 -2.78 233.57 -2.78 C 225.31 -2.78 218.02 -9.22 218.02 -17.86 C 218.02 -22.37 220.42 -26.59 223.39 -29.09 C 226.27 -31.49 229.73 -32.64 233.47 -32.64 C 238.18 -32.64 243.74 -30.24 246.05 -26.02 L 250.08 -26.02 C 247.58 -31.97 240.67 -36.1 233.47 -36.1 C 228.77 -36.1 224.26 -34.46 220.99 -31.58 C 217.25 -28.32 214.46 -23.52 214.46 -17.86 C 214.46 -7.39 223.49 0.67 233.47 0.67 C 244.13 0.67 251.9 -7.97 252.19 -16.42 Z M 286.46 0 L 286.46 -35.52 L 282.91 -35.52 L 282.91 -6.05 L 263.04 -35.52 L 258.24 -35.52 L 258.24 0 L 261.79 0 L 261.79 -31.2 L 282.91 0 Z" transform="translate(-143.46999999999997, 17.715)" paint-order="stroke" style="stroke: none; stroke-width: 0; stroke-dasharray: none; stroke-linecap: butt; stroke-dashoffset: 0; stroke-linejoin: miter; stroke-miterlimit: 4; fill: url(#SVGID_134383); fill-rule: nonzero; opacity: 1;"/>
</g>
</g>
</g>
<g id="shape-8f3cb4a4-32ed-41e1-b3ad-d39f7bdf97c0" transform="matrix(1.9211538461538462 0 0 1.9211538461538462 640.5617408906885 394.4928051030502)">
<g paint-order="stroke" style="">
		<g id="path-01_00000064313561665827601440000000705037953542034616_" transform="matrix(1 0 0 1 0 0)">
<linearGradient y2="139.36818" x2="125.00000195783886" y1="0" x1="125.00000195783883" gradientTransform="matrix(1 0 0 1 0 0)" gradientUnits="userSpaceOnUse" id="SVGID_134381">
<stop style="stop-color:rgb(91,36,122);stop-opacity: 1" offset="0%"/>
<stop style="stop-color:rgb(44,130,181);stop-opacity: 1" offset="100%"/>
</linearGradient>
<path stroke-linecap="round" d="M 109.00286 130.11209 C 96.20322 133.09393 84.58825999999999 134.33419999999998 72.23983 134.98572 C 90.60459 128.21387 102.69507999999999 118.77742999999998 107.49154999999999 114.63976999999998 C 124.08657 100.32399999999998 133.72901 87.73060999999998 147.55240999999998 73.21812999999999 C 178.42326999999997 40.808559999999986 221.70358999999996 48.05448999999999 235.58171999999996 79.76474999999999 C 235.75520999999995 80.16122999999999 235.25233999999998 80.50901999999999 234.95378999999997 80.19538999999999 C 230.81270999999998 75.84459999999999 218.25856999999996 64.27519 200.78000999999998 62.96110999999999 C 184.25270999999998 61.71858999999999 171.83363999999997 71.0829 160.80357999999998 85.95576 C 145.72989 106.28098 132.41937 123.62437 109.00286 130.11209 z M 249.9408 122.35091 C 247.10491 126.96569 242.33168 129.71359999999999 236.97599 130.569 C 231.62037 131.42432 226.08366 130.34609999999998 221.08503 128.24496 C 215.51489999999998 125.9036 210.17638 121.86474 208.4949 116.07020999999999 C 206.96679 110.80438999999998 209.80381 104.22142 214.85403 102.68299999999999 C 215.55477 102.46954 215.75369999999998 101.57625999999999 215.20246 101.09445 C 212.33622 98.58943 208.13022 97.62661999999999 204.48217 98.77743 C 200.66021 99.9832 196.64806 102.67421 194.95542 108.10137 C 194.77386 108.68335 193.96435 108.73862 193.73394 108.17414000000001 C 191.06403 101.63259000000001 192.25742 96.00366000000001 195.37749 91.65641000000001 C 197.02137 89.36590000000001 200.57196 86.92083000000001 203.27312 86.10242000000001 C 211.1115 83.72753000000002 220.07611 85.48902000000001 226.43677 90.63735000000001 C 232.23505 95.33055000000002 235.72147999999999 102.71854000000002 235.75588 110.15884000000001 C 235.75781999999998 110.58706000000001 236.34627 110.71124000000002 236.51120999999998 110.31590000000001 C 239.78644999999997 102.46664000000001 238.69582999999997 92.89499 233.59734999999998 86.05722000000002 C 223.22080999999997 72.14098000000001 202.85258 65.75528000000001 186.58443999999997 72.35178000000002 C 173.96718999999996 77.46795000000002 166.21161999999998 89.08377000000002 158.09365999999997 99.33298000000002 C 147.61532999999997 112.56217000000002 135.14927999999998 125.25588000000002 119.06398999999996 130.41509000000002 C 137.13731999999996 131.73304000000002 154.08617999999996 125.11776000000002 181.42387999999997 127.90797000000002 C 204.77845999999997 130.29172000000003 223.12603999999996 138.43413 235.40849999999998 137.31652000000003 C 242.77806 136.64598 250.7679 131.93094 249.9408 122.35091 z M 115.40139 95.08944 C 139.04831000000001 68.01726 153.5334 51.855549999999994 173.11157 46.47658 C 199.95308 39.10212 216.68341 49.12182 229.46423 61.89595 C 229.46423 61.89595 214.11400999999998 23.75237 170.21069 24.86813 C 153.79747 25.28531 137.54313 31.00039 125.24517 41.8584 C 114.57824 51.276300000000006 106.62513 63.61746000000001 97.66537 74.59643 C 90.45161 83.43581999999999 50.636489999999995 129.77468 27.651979999999995 139.18678 C 38.46527999999999 138.8605 49.11637999999999 137.91372 59.39748999999999 135.55182 C 76.35791 132.57715 104.08481 108.0452 115.40139 95.08944 z M 73.59387 94.37119 C 86.89963 79.56377 115.66748 44.926629999999996 101.06888 24.135229999999993 C 93.90453 13.931719999999993 77.96497 11.938239999999993 69.45818999999999 21.658649999999994 C 57.87130999999999 34.89854999999999 75.57439 42.689629999999994 61.61656999999999 74.98598 C 47.58535999999999 107.45195 10.907749999999986 138.30979 10.907749999999986 138.30979 C 10.907749999999986 138.30979 30.85406 141.9346 73.59387 94.37119 z M 0 139.36818 C 21.71217 129.10237 42.10404 100.77526 52.13932 84.83032 C 57.50423 76.30601 57.919439999999994 70.43219 58.71562 64.15198000000001 C 59.41993 58.59678000000001 58.48852 52.45042000000001 54.79945 48.058200000000014 C 50.43134 42.85749000000001 42.05148 40.17760000000001 36.1246 44.38189000000001 C 30.074840000000002 48.67337000000001 29.727610000000002 57.595360000000014 32.70841 63.745030000000014 C 34.03331 66.47851000000001 35.72594 69.05147000000001 36.68351 71.93371000000002 C 38.736689999999996 78.11343000000002 36.604549999999996 84.12876000000001 33.84278 89.69613000000001 C 28.51404 100.4381 17.31395 118.94391 0 139.36818 z M 126.64878 25.19039 C 133.61777 25.19039 139.26718 19.5513 139.26718 12.59515 C 139.26718 5.638999999999999 133.61777 0 126.64878 0 C 119.6798 0 114.03031 5.63901 114.03031 12.59515 C 114.03031 19.55129 119.6798 25.19039 126.64878 25.19039 z" transform="translate(-125.00000195783885, -69.68409)" paint-order="stroke" style="stroke: none; stroke-width: 1; stroke-dasharray: none; stroke-linecap: butt; stroke-dashoffset: 0; stroke-linejoin: miter; stroke-miterlimit: 4; fill: url(#SVGID_134381); fill-rule: nonzero; opacity: 1;"/>
</g>
</g>
</g>
</svg>